<svg id="Layer_1" data-name="Layer 1" xmlns="http://www.w3.org/2000/svg" xmlns:xlink="http://www.w3.org/1999/xlink" viewBox="20 20 243.46 243.46"><defs><style>.cls-1{fill:none;}.cls-2{clip-path:url(#clip-path);}.cls-3{fill:red;}.cls-4{fill:#fff;}</style><clipPath id="clip-path"><rect class="cls-1" width="283.46" height="283.46"/></clipPath></defs><g class="cls-2"><circle class="cls-3" cx="141.73" cy="141.73" r="104.14"/><path class="cls-4" d="M188,143.43l15.94-27.62-7.55-13.08-31.93,0,18.49-32a81.81,81.81,0,0,0-16-7.16l-25.16,43.53,7.59,13.09h31.92l-16,27.65,7.54,13.12h48.79a81.85,81.85,0,0,0,2.23-17.48Z"/><path class="cls-4" d="M134.16,210.37h15.1l16-27.63,17.43,30.18a82.41,82.41,0,0,0,14.18-10.32l-24-41.69H157.71l-16,27.66-16-27.66H110.64l-24,41.69a82.48,82.48,0,0,0,14.19,10.32l17.42-30.17Z"/><path class="cls-4" d="M118.18,147.8l-15.94-27.66h31.9l7.59-13.09L116.57,63.53a81.19,81.19,0,0,0-16,7.15l18.48,32H87.14l-7.56,13.08,15.94,27.66H59.61a81.85,81.85,0,0,0,2.24,17.48h48.79Z"/></g></svg>