<svg width="329" height="156" viewBox="0 0 329 156" fill="none" xmlns="http://www.w3.org/2000/svg">
<path d="M71.8 7.2C71.6667 7.13333 71.1 8.06666 70.1 10C69.1667 11.8667 67.8 14.7667 66 18.7L65.4 20.1C65 19.9667 63 23.7667 59.4 31.5L59.3 31.8L58.7 33.1C57.6333 34.1 55.6 37.8333 52.6 44.3C48.9333 52.0333 47.4 56.0667 48 56.4C48.3333 56.5333 49.2333 55.1667 50.7 52.3C52.2333 49.3667 54.3333 45 57 39.2C57.5333 38.2 59.1 34.9333 61.7 29.4C63.1 26.6667 64.7667 23.2 66.7 19C70.3 11.2667 72 7.33333 71.8 7.2ZM65.4 13.6C65.7333 13.6667 64.0333 17.6667 60.3 25.6C58.5 29.5333 56.4667 33.8 54.2 38.4L54.1 38.7C52.7 41.5 51.7 43.5333 51.1 44.8C50.1667 47.0667 49.1667 49.3333 48.1 51.6C44.5667 59.4 42.4 63.1333 41.6 62.8C40.8667 62.4667 42.3 58.4 45.9 50.6C48.7 44.6 50.7333 40.9667 52 39.7L52.6 38.5L52.9 37.9C56.2333 30.5667 58.2333 26.7667 58.9 26.5L59.5 25.1C61.5667 20.7667 63.0333 17.7667 63.9 16.1C64.7667 14.3667 65.2667 13.5333 65.4 13.6ZM71.8 13.6C71.9333 13.6667 71.8333 14.1333 71.5 15C71.1667 15.8667 70.6 17.2 69.8 19C69.0667 20.8 68.1 22.9667 66.9 25.5C66.3 26.7667 64.2 31.1333 60.6 38.6C58.8 42.4667 57.4 45.3333 56.4 47.2C55.4 49.0667 54.7667 49.9667 54.5 49.9C53.9667 49.7 55.5333 45.7 59.2 37.9C62.3333 31.1667 64.3333 27.4 65.2 26.6L65.9 25.1C69.5 17.3 71.4667 13.4667 71.8 13.6ZM71.8 20.1C72.2 20.3 70.6 24.2667 67 32C66.6 32.9333 65.7 34.8333 64.3 37.7C62.9667 40.5667 61.8333 43.0333 60.9 45.1C59.9667 47.1 59.1333 48.8 58.4 50.2C57.6667 51.6 57.0333 52.8 56.5 53.8C55.9667 54.7333 55.5333 55.4333 55.2 55.9C54.8667 56.3 54.6333 56.4667 54.5 56.4C53.8333 56.1333 55.3333 52.1 59 44.3C61.8667 38.1667 63.8667 34.4667 65 33.2L65.7 31.8L65.8 31.5C69.4 23.7667 71.4 19.9667 71.8 20.1ZM71.8 26.5C72.3333 26.8333 70.7667 30.8667 67.1 38.6C65.6333 41.7333 64.5667 43.9667 63.9 45.3C63.0333 47.5 62.1 49.6333 61.1 51.7C57.5 59.4333 55.3 63.1333 54.5 62.8C53.7667 62.4667 55.2 58.4 58.8 50.6C61.4 45.0667 63.3667 41.5333 64.7 40L65.6 37.9C69.2 30.1 71.2667 26.3 71.8 26.5ZM52.4 33H52.5C53.1 33.3333 51.5667 37.3667 47.9 45.1C47.1 46.8333 46.0667 48.9 44.8 51.3C44.0667 53.0333 43.0667 55.3667 41.8 58.3C40.8 60.3667 39.7 62.5 38.5 64.7C37.8333 66.8333 36.9333 69.0333 35.8 71.3C32.2 79.1 29.8333 82.7333 28.7 82.2L26.1 84.3C25.5667 86.1 24.7 88.3 23.5 90.9C22.4333 93.1667 21.3 95.2333 20.1 97.1L19.4 99.5C20.7333 96.9667 22.1333 94.8333 23.6 93.1C25 91.4333 26.0333 90.7333 26.7 91C28.3 91.8 29.4667 92.4333 30.2 92.9C31.5333 91.3667 32.5 90.7333 33.1 91C33.5 91.2 34.1 91.5 34.9 91.9C35.7 92.2333 36.3 92.5 36.7 92.7C38.0333 91.2333 39 90.6667 39.6 91C41.6667 91.9333 42.8667 92.4667 43.2 92.6C44.5333 91.2667 45.4667 90.7333 46 91C47.0667 91.4667 47.1 93.5667 46.1 97.3C48.9667 92.4333 51.1 90.3333 52.5 91C53.5 91.5333 54.0667 92.7667 54.2 94.7C53.9333 93.7 54.0333 91.6667 54.5 88.6C53.7 88.2667 53.7 86.1333 54.5 82.2C53.7 81.8 54.3 79.1 56.3 74.1L54.5 75.7C53.7 75.3667 53.7 73.2333 54.5 69.3C53.6333 68.9 55 64.8 58.6 57C61.0667 51.9333 62.9333 48.5667 64.2 46.9L65.4 44.2C66.6 41.6 67.6333 39.4667 68.5 37.8C69.3667 36.0667 70.0667 34.8333 70.6 34.1C71.2 33.3 71.6 32.9333 71.8 33C72.4667 33.2667 71 37.3 67.4 45.1V45.2C66.5333 46.9333 65.3667 49.2333 63.9 52.1C63.7 52.6333 63.5667 53.0333 63.5 53.3C63.4333 53.7 63.5 53.8667 63.7 53.8L65.1 50.6H65.2C68.8 42.8 71 39.0667 71.8 39.4C72.6667 39.8667 71.3 43.9333 67.7 51.6C69.9 47.4667 71.2667 45.5667 71.8 45.9C72.5333 46.2333 72.2 48.6333 70.8 53.1C71.3333 52.4333 71.7 52.1667 71.9 52.3C72.5667 52.5667 71.9 55.2333 69.9 60.3L71.9 58.8C72.6333 59.1333 72.1667 61.5333 70.5 66L71.9 65.2C72.6333 65.6 72.2667 67.9 70.8 72.1L71.8 71.7C72.6667 71.9667 72.4333 74.1333 71.1 78.2L71.8 78.1H71.9C72.7 78.5667 72.5 80.7333 71.3 84.6H71.9C72.7 85 72.6667 87.1333 71.8 91C72.6667 91.4667 72.8667 93.1667 72.4 96.1C75 92.1 76.9667 90.4 78.3 91C79.2333 91.5333 79.4667 93.1333 79 95.8C81.5333 92 83.4667 90.4 84.8 91C85.6667 91.4667 85.9 93 85.5 95.6C87.9667 91.9333 89.8667 90.4 91.2 91C92 91.4667 92.2667 92.9333 92 95.4C94.5333 91.8667 96.4333 90.4 97.7 91C100.033 92.1333 99.3333 96.6 95.6 104.4C94.0667 107.6 92.4667 110.167 90.8 112.1C89.0667 114.167 87.7333 114.933 86.8 114.4C85.9333 114 85.6333 112.567 85.9 110.1C83.4333 113.567 81.5667 115 80.3 114.4C79.3667 114 79.1 112.5 79.5 109.9C77.0333 113.5 75.1667 115 73.9 114.4L72.5 117.4C73.3 118.533 73.3333 120.733 72.6 124C73.3333 125.2 73.5333 127.867 73.2 132C75.2667 129.933 77.4333 129.933 79.7 132C81.7667 129.933 83.4667 129.2 84.8 129.8H91.2L92.6 131.8C94.7333 129.867 96.4333 129.2 97.7 129.8C100.767 131.2 100.467 135.8 96.8 143.6C93.2 151.333 89.8667 154.5 86.8 153.1L85.3 151C83.3 153 81.6333 153.7 80.3 153.1L78.9 151C76.8333 153 75.1667 153.7 73.9 153.1L72.4 150.9C70.4 152.967 68.7333 153.7 67.4 153.1L65.9 150.8C63.7667 152.933 62.1 153.7 60.9 153.1L59.5 150.8C57.3667 152.933 55.7 153.7 54.5 153.1L53.1 150.7C50.9667 152.9 49.2667 153.7 48 153.1L46.6 150.6C44.5333 152.867 42.8667 153.7 41.6 153.1L40.2 150.5C38.0667 152.833 36.3667 153.7 35.1 153.1L33.8 150.4C31.7333 152.8 30.0333 153.7 28.7 153.1C25.9 151.767 26.3333 147.233 30 139.5C31.5333 136.233 33.2333 133.667 35.1 131.8C36.9667 129.933 38.4667 129.267 39.6 129.8L40.9 132.5C43.0333 130.1 44.7333 129.2 46 129.8L47.4 132.4C49.5333 130.067 51.2333 129.2 52.5 129.8L53.9 126.8C53.1667 125.667 53.2 123.533 54 120.4C53.2667 119.333 53.3 117.233 54.1 114.1C53.5 113.233 53.5 111.5 54.1 108.9C51.4333 113.167 49.4 115 48 114.4C47 113.867 46.9333 111.9 47.8 108.5C45 113.033 42.9333 115 41.6 114.4L40.9 112.3C40.9 111.1 41.1 109.733 41.5 108.2C38.5667 112.933 36.4333 115 35.1 114.4C34.0333 113.933 34.0667 111.733 35.2 107.8C33.9333 110 32.7 111.7 31.5 112.9C30.2333 114.167 29.3 114.667 28.7 114.4C27.5667 113.867 27.6333 111.5 28.9 107.3C27.7667 109.433 26.5 111.267 25.1 112.8C23.7667 114.133 22.8 114.667 22.2 114.4C21 113.933 21.1667 111.367 22.7 106.7C21.4333 108.967 20.1 110.933 18.7 112.6C17.3667 114.133 16.4 114.733 15.8 114.4C14.5333 113.8 14.8 110.967 16.6 105.9C15.2667 108.433 13.8667 110.6 12.4 112.4C11 114 9.96667 114.667 9.3 114.4C8.36667 113.867 8.4 111.733 9.4 108L9.1 107.8C7.83333 109.867 6.63333 111.533 5.5 112.8C4.3 114.133 3.26667 113.967 2.4 112.3C2.4 110.9 2.63333 109.467 3.1 108H2.9C1.16667 107.2 2.16667 102.9 5.9 95.1C7.36667 91.9667 8.86667 89.3333 10.4 87.2C11.9333 85.1333 13.0667 84.2667 13.8 84.6L17.8 80C18.8667 78.5333 19.6667 77.9 20.2 78.1L20.7 79.4C21.8333 77.2 23.0667 75.2 24.4 73.4C24.5333 73.0667 24.7667 72.5 25.1 71.7C25.5 70.8333 25.8 70.1667 26 69.7C27.8667 65.7667 29.3667 62.9 30.5 61.1C31.7 59.3 32.5667 58.5333 33.1 58.8C33.7 59.0667 33.3333 61.0667 32 64.8L32.7 63.4C34.9 58.6 36.7667 55.2333 38.3 53.3L39.5 50.6C43.1 42.8 45.2667 39.0667 46 39.4C46.8 39.7333 45.3333 43.8 41.6 51.6C40.6667 53.7333 39.6 55.9333 38.4 58.2L37.9 60.1L39.3 57.1V57C41.8333 51.4 43.8 47.8667 45.2 46.4L46.2 44.3C49.5333 37.1 51.6 33.3333 52.4 33ZM64.8 57.3L64 58.8L63.5 60.4L64.8 57.3ZM73.1 109.7L72.4 110.9L72.9 112.2L73.1 109.7ZM159.281 0.699991C159.481 0.833322 157.781 4.79999 154.181 12.6C151.448 19 149.515 23.4 148.381 25.8C145.715 31.8667 143.748 36.2 142.481 38.8L142.381 38.9C141.648 40.4333 140.648 42.4667 139.381 45L138.881 46.2C140.415 46.4 140.548 48.4333 139.281 52.3H139.981V58.8C141.115 59.3333 141.115 61.5 139.981 65.3C141.181 65.9 141.281 68.1 140.281 71.9C141.415 72.8333 141.515 75.0667 140.581 78.6C141.515 79.7333 141.581 82 140.781 85.4C141.715 86.7333 141.815 88.9667 141.081 92.1C141.881 93.6333 141.948 95.9 141.281 98.9C143.348 101.567 145.048 103.267 146.381 104C148.448 105 149.015 107.767 148.081 112.3C149.948 114.767 151.548 116.3 152.881 116.9C154.748 117.767 155.548 120 155.281 123.6C156.815 122.867 158.148 122.767 159.281 123.3C161.215 124.233 162.115 126.433 161.981 129.9C163.381 129.3 164.648 129.267 165.781 129.8C168.581 129.133 170.715 129.133 172.181 129.8H174.981C177.048 126.4 179.281 124.267 181.681 123.4C182.681 121.733 183.915 120.2 185.381 118.8C187.981 112.133 190.281 107.9 192.281 106.1C191.881 104.7 191.948 102.733 192.481 100.2C192.015 98.8 192.115 96.7667 192.781 94.1C192.248 92.7 192.315 90.6667 192.981 88C192.381 86.8667 192.481 84.8333 193.281 81.9C192.548 80.9667 192.615 78.9 193.481 75.7C192.548 75.1667 192.648 73.0333 193.781 69.3H193.581C192.648 68.9 192.848 66.7 194.181 62.7C192.981 62.4333 193.148 60.1667 194.681 55.9L193.581 56.4C192.781 56 193.315 53.4 195.181 48.6L193.581 49.9C192.848 49.5 193.715 46.2667 196.181 40.2L193.581 43.5C192.648 43.1 194.048 39 197.781 31.2C201.448 23.4 203.681 19.7 204.481 20.1C205.215 20.4333 204.181 23.7667 201.381 30.1C202.381 28.8333 203.115 27.9 203.581 27.3C204.115 26.7 204.415 26.4333 204.481 26.5C205.215 26.8333 204.581 29.5 202.581 34.5L204.281 36.5C205.948 32.9667 207.315 30.3667 208.381 28.7C209.515 27.0333 210.348 26.3 210.881 26.5C211.615 26.8333 211.048 29.4333 209.181 34.3L210.981 33C211.715 33.3333 211.281 35.6667 209.681 40C211.348 40 211.481 42 210.081 46L210.981 45.9C211.848 46.3 211.648 48.4333 210.381 52.3L211.381 52.8C212.648 50.6 213.815 48.8667 214.881 47.6C216.148 47.2667 216.948 47.5 217.281 48.3C217.615 49.1 217.481 50.4333 216.881 52.3H217.381V58.8C218.515 59.3333 218.581 61.5333 217.581 65.4C218.648 66.1333 218.715 68.3333 217.781 72C218.781 73 218.881 75.2333 218.081 78.7C218.948 79.9667 219.048 82.2333 218.381 85.5C219.981 88.1 219.348 92.4 216.481 98.4C215.415 100.8 214.148 102.867 212.681 104.6L212.481 105.6C213.881 108.667 213.348 112.833 210.881 118.1C208.748 122.633 206.248 125.6 203.381 127C201.515 130.2 199.481 132.333 197.281 133.4C195.348 136.6 193.281 138.767 191.081 139.9C189.281 142.9 187.281 145 185.081 146.2C181.481 152.467 177.848 154.767 174.181 153.1L173.081 152.3C171.148 153.567 169.381 153.833 167.781 153.1L166.581 152.3C164.648 153.567 162.881 153.833 161.281 153.1C158.481 153.767 156.348 153.767 154.881 153.1L153.681 152.2C151.681 153.533 149.915 153.833 148.381 153.1C146.381 152.167 145.481 149.967 145.681 146.5C144.348 147.167 143.115 147.233 141.981 146.7C140.048 145.767 139.181 143.467 139.381 139.8C137.915 140.6 136.615 140.733 135.481 140.2C133.548 139.267 132.781 136.9 133.181 133.1C131.581 134.1 130.215 134.333 129.081 133.8C127.081 132.867 126.381 130.333 126.981 126.2C125.315 127.467 123.848 127.833 122.581 127.3C120.515 126.3 120.015 123.467 121.081 118.8C120.681 113.2 120.781 109.067 121.381 106.4C119.248 108 117.515 108.533 116.181 108C114.515 107.2 114.181 104.667 115.181 100.4C114.648 99.0667 114.748 97.0333 115.481 94.3C114.948 93.0333 115.015 91 115.681 88.2C114.948 87.2 115.048 85.1333 115.981 82C115.181 81.2667 115.281 79.1667 116.281 75.7H116.181C115.248 75.3 115.381 73.1667 116.581 69.3H116.181C114.715 68.6333 115.815 64.4 119.481 56.6C121.015 53.4 122.281 51.0333 123.281 49.5C121.948 49.3 123.081 45.3333 126.681 37.6C130.281 29.8667 132.548 26.1667 133.481 26.5C134.215 26.8333 133.315 29.9 130.781 35.7L132.281 33.8L133.381 31.3C136.981 23.5 139.181 19.7667 139.981 20.1C140.715 20.5667 139.248 24.6333 135.581 32.3L132.381 39.2L133.081 37.6C135.548 32.3333 137.548 28.8333 139.081 27.1L140.081 24.9C143.681 17.1667 145.781 13.4 146.381 13.6C146.981 13.8667 145.481 17.9 141.881 25.7C140.281 29.0333 139.315 31 138.981 31.6C138.648 32.4667 138.148 33.7 137.481 35.3L138.581 33.9L139.781 31.2C142.781 24.8667 144.848 21.2333 145.981 20.3L146.781 18.6C150.381 10.8 152.415 7 152.881 7.2C153.281 7.4 151.681 11.4 148.081 19.2L147.981 19.3C146.781 21.9667 144.848 26.3 142.181 32.3C143.515 29.7667 144.615 28.0667 145.481 27.2L146.381 25.1L146.481 24.9C147.415 22.9 148.215 21.2 148.881 19.8C149.615 18.4 150.248 17.2333 150.781 16.3C151.315 15.3 151.748 14.6 152.081 14.2C152.415 13.7333 152.681 13.5333 152.881 13.6L153.481 12.3C155.281 8.36666 156.648 5.43333 157.581 3.49999C158.581 1.56666 159.148 0.633329 159.281 0.699991ZM164.281 3.19999C165.148 1.46666 165.648 0.633329 165.781 0.699991C165.915 0.766661 165.548 1.79999 164.681 3.79999C163.881 5.73333 162.581 8.66666 160.781 12.6C157.181 20.4 155.215 24.2333 154.881 24.1C154.748 24.0333 155.081 23.0333 155.881 21.1C156.748 19.1 158.081 16.1333 159.881 12.2C161.948 7.86666 163.415 4.86666 164.281 3.19999ZM172.181 0.699991C172.315 0.766661 172.215 1.23333 171.881 2.1C171.548 2.96666 170.981 4.3 170.181 6.09999C169.448 7.89999 168.481 10.0667 167.281 12.6C165.415 16.5333 163.981 19.4667 162.981 21.4C162.048 23.2667 161.481 24.1667 161.281 24.1C161.148 24.0333 161.248 23.5667 161.581 22.7C161.915 21.8333 162.481 20.5 163.281 18.7C164.081 16.9 165.081 14.7333 166.281 12.2C169.881 4.39999 171.848 0.566659 172.181 0.699991ZM178.681 0.699991C178.815 0.766661 178.715 1.23333 178.381 2.1C178.048 2.96666 177.481 4.3 176.681 6.09999C175.948 7.89999 174.981 10.1 173.781 12.7C170.181 20.4333 168.181 24.2333 167.781 24.1C167.448 23.9 169.081 19.9333 172.681 12.2C174.548 8.26666 175.948 5.36666 176.881 3.49999C177.881 1.56666 178.481 0.633329 178.681 0.699991ZM185.081 0.699991C185.481 0.899992 183.881 4.89999 180.281 12.7C176.681 20.5 174.648 24.3 174.181 24.1C173.715 23.9 175.348 19.9333 179.081 12.2C182.681 4.39999 184.681 0.566659 185.081 0.699991ZM154.581 19.2C158.181 11.4 159.748 7.4 159.281 7.2C158.815 7 156.781 10.7667 153.181 18.5C149.515 26.3 147.915 30.3333 148.381 30.6C148.848 30.8 150.915 27 154.581 19.2ZM185.081 7.2C184.548 7 182.481 10.7667 178.881 18.5C175.281 26.3 173.715 30.3333 174.181 30.6C174.715 30.8 176.815 27 180.481 19.2C184.081 11.5333 185.615 7.53333 185.081 7.2ZM191.481 7.2C190.681 7.53333 188.615 11.3 185.281 18.5C181.615 26.2333 180.081 30.2667 180.681 30.6C181.148 30.8 183.248 27.0333 186.981 19.3C190.648 11.5667 192.181 7.53333 191.581 7.2H191.481ZM191.481 13.6C190.548 13.9333 188.448 17.7 185.181 24.9C181.515 32.7 180.015 36.7333 180.681 37C180.881 37.0667 181.148 36.9 181.481 36.5C181.815 36.0333 182.248 35.3333 182.781 34.4C183.315 33.4667 183.915 32.3 184.581 30.9C185.315 29.4333 186.148 27.7333 187.081 25.8C190.815 18 192.281 13.9333 191.481 13.6ZM197.981 13.6C197.115 13.8 194.948 17.5333 191.481 24.8C187.881 32.6667 186.415 36.7333 187.081 37C187.815 37.3333 190.015 33.6 193.681 25.8C197.415 18 198.881 13.9333 198.081 13.6H197.981ZM197.981 20.1C196.981 20.3 194.781 24 191.381 31.2C187.648 39 186.248 43.1 187.181 43.5C187.581 43.7 188.615 42.3 190.281 39.3C187.348 45.9 186.315 49.4333 187.181 49.9C187.648 50.1667 188.448 49.4 189.581 47.6C190.781 45.7333 192.281 42.8333 194.081 38.9C197.748 31.1667 199.081 27.0333 198.081 26.5C197.548 26.3 196.315 27.8 194.381 31C197.515 24 198.748 20.3667 198.081 20.1H197.981ZM298.363 7.2C298.229 7.13333 297.663 8.06666 296.663 10C295.729 11.8667 294.363 14.7667 292.563 18.7L291.963 20.1C291.563 19.9667 289.563 23.7667 285.963 31.5L285.863 31.8L285.263 33.1C284.196 34.1 282.163 37.8333 279.163 44.3C275.496 52.0333 273.963 56.0667 274.563 56.4C274.896 56.5333 275.796 55.1667 277.263 52.3C278.796 49.3667 280.896 45 283.563 39.2C284.096 38.2 285.663 34.9333 288.263 29.4C289.663 26.6667 291.329 23.2 293.263 19C296.863 11.2667 298.563 7.33333 298.363 7.2ZM291.963 13.6C292.296 13.6667 290.596 17.6667 286.863 25.6C285.063 29.5333 283.029 33.8 280.763 38.4L280.663 38.7C279.263 41.5 278.263 43.5333 277.663 44.8C276.729 47.0667 275.729 49.3333 274.663 51.6C271.129 59.4 268.963 63.1333 268.163 62.8C267.429 62.4667 268.863 58.4 272.463 50.6C275.263 44.6 277.296 40.9667 278.563 39.7L279.163 38.5L279.463 37.9C282.796 30.5667 284.796 26.7667 285.463 26.5L286.063 25.1C288.129 20.7667 289.596 17.7667 290.463 16.1C291.329 14.3667 291.829 13.5333 291.963 13.6ZM298.363 13.6C298.496 13.6667 298.396 14.1333 298.063 15C297.729 15.8667 297.163 17.2 296.363 19C295.629 20.8 294.663 22.9667 293.463 25.5C292.863 26.7667 290.763 31.1333 287.163 38.6C285.363 42.4667 283.963 45.3333 282.963 47.2C281.963 49.0667 281.329 49.9667 281.063 49.9C280.529 49.7 282.096 45.7 285.763 37.9C288.896 31.1667 290.896 27.4 291.763 26.6L292.463 25.1C296.063 17.3 298.029 13.4667 298.363 13.6ZM298.363 20.1C298.763 20.3 297.163 24.2667 293.563 32C293.163 32.9333 292.263 34.8333 290.863 37.7C289.529 40.5667 288.396 43.0333 287.463 45.1C286.529 47.1 285.696 48.8 284.963 50.2C284.229 51.6 283.596 52.8 283.063 53.8C282.529 54.7333 282.096 55.4333 281.763 55.9C281.429 56.3 281.196 56.4667 281.063 56.4C280.396 56.1333 281.896 52.1 285.562 44.3C288.429 38.1667 290.429 34.4667 291.563 33.2L292.263 31.8L292.363 31.5C295.963 23.7667 297.963 19.9667 298.363 20.1ZM298.363 26.5C298.896 26.8333 297.329 30.8667 293.663 38.6C292.196 41.7333 291.129 43.9667 290.463 45.3C289.596 47.5 288.663 49.6333 287.663 51.7C284.063 59.4333 281.863 63.1333 281.063 62.8C280.329 62.4667 281.763 58.4 285.363 50.6C287.963 45.0667 289.929 41.5333 291.263 40L292.163 37.9C295.763 30.1 297.829 26.3 298.363 26.5ZM278.963 33H279.063C279.663 33.3333 278.129 37.3667 274.462 45.1C273.663 46.8333 272.629 48.9 271.363 51.3C270.629 53.0333 269.629 55.3667 268.363 58.3C267.363 60.3667 266.263 62.5 265.063 64.7C264.396 66.8333 263.496 69.0333 262.363 71.3C258.763 79.1 256.396 82.7333 255.263 82.2L252.663 84.3C252.129 86.1 251.263 88.3 250.063 90.9C248.996 93.1667 247.863 95.2333 246.663 97.1L245.963 99.5C247.296 96.9667 248.696 94.8333 250.163 93.1C251.563 91.4333 252.596 90.7333 253.263 91C254.863 91.8 256.029 92.4333 256.763 92.9C258.096 91.3667 259.063 90.7333 259.663 91C260.063 91.2 260.663 91.5 261.463 91.9C262.263 92.2333 262.863 92.5 263.263 92.7C264.596 91.2333 265.563 90.6667 266.163 91C268.229 91.9333 269.429 92.4667 269.763 92.6C271.096 91.2667 272.029 90.7333 272.563 91C273.629 91.4667 273.663 93.5667 272.663 97.3C275.529 92.4333 277.663 90.3333 279.063 91C280.063 91.5333 280.629 92.7667 280.763 94.7C280.496 93.7 280.596 91.6667 281.063 88.6C280.263 88.2667 280.263 86.1333 281.063 82.2C280.263 81.8 280.863 79.1 282.863 74.1L281.063 75.7C280.263 75.3667 280.263 73.2333 281.063 69.3C280.196 68.9 281.563 64.8 285.163 57C287.629 51.9333 289.496 48.5667 290.763 46.9L291.963 44.2C293.163 41.6 294.196 39.4667 295.063 37.8C295.929 36.0667 296.629 34.8333 297.163 34.1C297.763 33.3 298.163 32.9333 298.363 33C299.029 33.2667 297.563 37.3 293.963 45.1V45.2C293.096 46.9333 291.929 49.2333 290.463 52.1C290.263 52.6333 290.129 53.0333 290.063 53.3C289.996 53.7 290.063 53.8667 290.263 53.8L291.663 50.6H291.763C295.363 42.8 297.563 39.0667 298.363 39.4C299.229 39.8667 297.863 43.9333 294.263 51.6C296.463 47.4667 297.829 45.5667 298.363 45.9C299.096 46.2333 298.763 48.6333 297.363 53.1C297.896 52.4333 298.263 52.1667 298.463 52.3C299.129 52.5667 298.463 55.2333 296.463 60.3L298.463 58.8C299.196 59.1333 298.729 61.5333 297.063 66L298.463 65.2C299.196 65.6 298.829 67.9 297.363 72.1L298.363 71.7C299.229 71.9667 298.996 74.1333 297.663 78.2L298.363 78.1H298.463C299.263 78.5667 299.063 80.7333 297.863 84.6H298.463C299.263 85 299.229 87.1333 298.363 91C299.229 91.4667 299.429 93.1667 298.963 96.1C301.563 92.1 303.529 90.4 304.863 91C305.796 91.5333 306.029 93.1333 305.563 95.8C308.096 92 310.029 90.4 311.363 91C312.229 91.4667 312.463 93 312.063 95.6C314.529 91.9333 316.429 90.4 317.763 91C318.563 91.4667 318.829 92.9333 318.563 95.4C321.096 91.8667 322.996 90.4 324.263 91C326.596 92.1333 325.896 96.6 322.163 104.4C320.629 107.6 319.029 110.167 317.363 112.1C315.629 114.167 314.296 114.933 313.363 114.4C312.496 114 312.196 112.567 312.463 110.1C309.996 113.567 308.129 115 306.863 114.4C305.929 114 305.663 112.5 306.063 109.9C303.596 113.5 301.729 115 300.463 114.4L299.063 117.4C299.863 118.533 299.896 120.733 299.163 124C299.896 125.2 300.096 127.867 299.763 132C301.829 129.933 303.996 129.933 306.263 132C308.329 129.933 310.029 129.2 311.363 129.8H317.763L319.163 131.8C321.296 129.867 322.996 129.2 324.263 129.8C327.329 131.2 327.029 135.8 323.363 143.6C319.763 151.333 316.429 154.5 313.363 153.1L311.863 151C309.863 153 308.196 153.7 306.863 153.1L305.463 151C303.396 153 301.729 153.7 300.463 153.1L298.963 150.9C296.963 152.967 295.296 153.7 293.963 153.1L292.463 150.8C290.329 152.933 288.663 153.7 287.463 153.1L286.063 150.8C283.929 152.933 282.263 153.7 281.063 153.1L279.663 150.7C277.529 152.9 275.829 153.7 274.563 153.1L273.163 150.6C271.096 152.867 269.429 153.7 268.163 153.1L266.763 150.5C264.629 152.833 262.929 153.7 261.663 153.1L260.363 150.4C258.296 152.8 256.596 153.7 255.263 153.1C252.463 151.767 252.896 147.233 256.563 139.5C258.096 136.233 259.796 133.667 261.663 131.8C263.529 129.933 265.029 129.267 266.163 129.8L267.463 132.5C269.596 130.1 271.296 129.2 272.563 129.8L273.963 132.4C276.096 130.067 277.796 129.2 279.063 129.8L280.463 126.8C279.729 125.667 279.763 123.533 280.563 120.4C279.829 119.333 279.863 117.233 280.663 114.1C280.063 113.233 280.063 111.5 280.663 108.9C277.996 113.167 275.963 115 274.563 114.4C273.563 113.867 273.496 111.9 274.363 108.5C271.563 113.033 269.496 115 268.163 114.4L267.463 112.3C267.463 111.1 267.663 109.733 268.063 108.2C265.129 112.933 262.996 115 261.663 114.4C260.596 113.933 260.629 111.733 261.763 107.8C260.496 110 259.263 111.7 258.063 112.9C256.796 114.167 255.863 114.667 255.263 114.4C254.129 113.867 254.196 111.5 255.463 107.3C254.329 109.433 253.063 111.267 251.663 112.8C250.329 114.133 249.363 114.667 248.762 114.4C247.563 113.933 247.729 111.367 249.263 106.7C247.996 108.967 246.663 110.933 245.263 112.6C243.929 114.133 242.963 114.733 242.363 114.4C241.096 113.8 241.363 110.967 243.163 105.9C241.829 108.433 240.429 110.6 238.963 112.4C237.563 114 236.529 114.667 235.863 114.4C234.929 113.867 234.963 111.733 235.963 108L235.663 107.8C234.396 109.867 233.196 111.533 232.063 112.8C230.863 114.133 229.829 113.967 228.963 112.3C228.963 110.9 229.196 109.467 229.662 108H229.463C227.729 107.2 228.729 102.9 232.463 95.1C233.929 91.9667 235.429 89.3333 236.963 87.2C238.496 85.1333 239.629 84.2667 240.363 84.6L244.363 80C245.429 78.5333 246.229 77.9 246.763 78.1L247.263 79.4C248.396 77.2 249.629 75.2 250.963 73.4C251.096 73.0667 251.329 72.5 251.663 71.7C252.063 70.8333 252.363 70.1667 252.563 69.7C254.429 65.7667 255.929 62.9 257.063 61.1C258.263 59.3 259.129 58.5333 259.663 58.8C260.263 59.0667 259.896 61.0667 258.563 64.8L259.263 63.4C261.463 58.6 263.329 55.2333 264.863 53.3L266.063 50.6C269.663 42.8 271.829 39.0667 272.563 39.4C273.363 39.7333 271.896 43.8 268.163 51.6C267.229 53.7333 266.163 55.9333 264.963 58.2L264.463 60.1L265.863 57.1V57C268.396 51.4 270.363 47.8667 271.763 46.4L272.763 44.3C276.096 37.1 278.163 33.3333 278.963 33ZM291.363 57.3L290.563 58.8L290.063 60.4L291.363 57.3ZM299.663 109.7L298.963 110.9L299.463 112.2L299.663 109.7Z" fill="#fff"/>
</svg>
