<svg width="617" height="194" viewBox="0 0 617 194" fill="none" xmlns="http://www.w3.org/2000/svg">
<path d="M26.3047 7.44531C20.3151 7.44531 15.6927 9.04036 12.4375 12.2305C9.2474 15.4206 7.65234 20.0104 7.65234 26V161.645C7.65234 172.712 13.8698 178.246 26.3047 178.246H140.66C146.65 178.246 150.914 176.977 153.453 174.438C155.992 171.898 157.262 167.634 157.262 161.645V26C157.262 13.6302 151.728 7.44531 140.66 7.44531H26.3047ZM176.5 167.797C176.5 176.977 174.71 183.52 171.129 187.426C167.613 191.397 161.461 193.383 152.672 193.383H26.3047C17.2552 193.383 10.6797 191.332 6.57812 187.23C2.54167 183.194 0.523438 176.716 0.523438 167.797V26C0.523438 17.7318 2.76953 11.3841 7.26172 6.95703C11.819 2.46484 18.1667 0.21875 26.3047 0.21875H146.715C156.025 0.21875 163.316 2.36719 168.59 6.66406C173.863 10.8958 176.5 17.3411 176.5 26V167.797ZM80.5039 120.824H49.9375C49.6771 120.824 49.2539 120.824 48.668 120.824C46.0638 120.824 44.2734 120.727 43.2969 120.531C42.3854 120.336 41.8646 119.75 41.7344 118.773C41.7344 115.583 42.2552 113.272 43.2969 111.84C47.5938 106.111 53.974 96.7357 62.4375 83.7148C70.901 70.694 77.3138 60.4401 81.6758 52.9531V52.5625C82.8477 52.8229 85.3216 52.9531 89.0977 52.9531L99.0586 52.5625L99.5469 52.9531C98.5052 60.9609 97.9518 68.4479 97.8867 75.4141V110.961H108.727C110.029 110.961 110.68 111.97 110.68 113.988C110.68 115.03 110.224 116.43 109.312 118.188C108.401 119.945 107.457 120.824 106.48 120.824H97.8867C97.8867 127.465 98.4401 134.789 99.5469 142.797L99.0586 143.188C95.9987 142.927 92.6784 142.797 89.0977 142.797L78.9414 143.188L78.7461 142.797C79.918 134.268 80.5039 126.944 80.5039 120.824ZM80.5039 67.9922L53.2578 110.961H80.5039V67.9922ZM246.227 7.44531C240.237 7.44531 235.615 9.04036 232.359 12.2305C229.169 15.4206 227.574 20.0104 227.574 26V161.645C227.574 172.712 233.792 178.246 246.227 178.246H360.582C366.572 178.246 370.836 176.977 373.375 174.438C375.914 171.898 377.184 167.634 377.184 161.645V26C377.184 13.6302 371.65 7.44531 360.582 7.44531H246.227ZM396.422 167.797C396.422 176.977 394.632 183.52 391.051 187.426C387.535 191.397 381.383 193.383 372.594 193.383H246.227C237.177 193.383 230.602 191.332 226.5 187.23C222.464 183.194 220.445 176.716 220.445 167.797V26C220.445 17.7318 222.691 11.3841 227.184 6.95703C231.741 2.46484 238.089 0.21875 246.227 0.21875H366.637C375.947 0.21875 383.238 2.36719 388.512 6.66406C393.785 10.8958 396.422 17.3411 396.422 26V167.797ZM301.988 58.2266C299.97 58.2266 298.245 58.7474 296.812 59.7891C295.38 60.8307 293.915 62.7188 292.418 65.4531C290.986 68.1875 289.846 72.5495 289 78.5391C288.219 84.4635 287.828 91.8203 287.828 100.609C287.828 125.414 292.418 137.816 301.598 137.816C310.908 137.816 315.595 123.493 315.66 94.8477C315.66 89.8997 315.497 85.6354 315.172 82.0547C314.911 78.4089 314.391 74.6003 313.609 70.6289C312.828 66.5924 311.428 63.5326 309.41 61.4492C307.392 59.3008 304.918 58.2266 301.988 58.2266ZM301.402 144.164C291.246 144.164 283.499 139.835 278.16 131.176C272.887 122.517 270.25 111.807 270.25 99.0469C270.25 84.9193 273.44 73.526 279.82 64.8672C286.201 56.1432 293.59 51.7812 301.988 51.7812C310.517 51.7812 317.841 55.9154 323.961 64.1836C330.146 72.4518 333.238 83.5846 333.238 97.582C333.238 113.728 330.081 125.544 323.766 133.031C317.516 140.453 310.061 144.164 301.402 144.164ZM466.148 7.44531C460.159 7.44531 455.536 9.04036 452.281 12.2305C449.091 15.4206 447.496 20.0104 447.496 26V161.645C447.496 172.712 453.714 178.246 466.148 178.246H580.504C586.493 178.246 590.758 176.977 593.297 174.438C595.836 171.898 597.105 167.634 597.105 161.645V26C597.105 13.6302 591.572 7.44531 580.504 7.44531H466.148ZM616.344 167.797C616.344 176.977 614.553 183.52 610.973 187.426C607.457 191.397 601.305 193.383 592.516 193.383H466.148C457.099 193.383 450.523 191.332 446.422 187.23C442.385 183.194 440.367 176.716 440.367 167.797V26C440.367 17.7318 442.613 11.3841 447.105 6.95703C451.663 2.46484 458.01 0.21875 466.148 0.21875H586.559C595.868 0.21875 603.16 2.36719 608.434 6.66406C613.707 10.8958 616.344 17.3411 616.344 26V167.797ZM520.348 120.824H489.781C489.521 120.824 489.098 120.824 488.512 120.824C485.908 120.824 484.117 120.727 483.141 120.531C482.229 120.336 481.708 119.75 481.578 118.773C481.578 115.583 482.099 113.272 483.141 111.84C487.438 106.111 493.818 96.7357 502.281 83.7148C510.745 70.694 517.158 60.4401 521.52 52.9531V52.5625C522.691 52.8229 525.165 52.9531 528.941 52.9531L538.902 52.5625L539.391 52.9531C538.349 60.9609 537.796 68.4479 537.73 75.4141V110.961H548.57C549.872 110.961 550.523 111.97 550.523 113.988C550.523 115.03 550.068 116.43 549.156 118.188C548.245 119.945 547.301 120.824 546.324 120.824H537.73C537.73 127.465 538.284 134.789 539.391 142.797L538.902 143.188C535.842 142.927 532.522 142.797 528.941 142.797L518.785 143.188L518.59 142.797C519.762 134.268 520.348 126.944 520.348 120.824ZM520.348 67.9922L493.102 110.961H520.348V67.9922Z" fill="#fff"/>
</svg>
