<svg width="377" height="160" viewBox="0 0 377 160" fill="none" xmlns="http://www.w3.org/2000/svg">
<path d="M96.5 -2.38419e-06V112H112.5V120H96.5V144L112.5 160H56.5L72.5 144V120H8.5L0.5 104L64.5 7.99999L96.5 -2.38419e-06ZM72.5 16L24.5 104L72.5 112V16ZM200.422 160H184.422L152.422 144L136.422 120L128.422 80L136.422 40L152.422 16L184.422 -2.38419e-06H200.422L232.422 16L248.422 40L256.422 80L248.422 120L232.422 144L200.422 160ZM208.422 16L192.422 7.99999L176.422 16L160.422 48V112L176.422 144L192.422 152L208.422 144L224.422 112V48L208.422 16ZM360.367 -2.38419e-06V112H376.367V120H360.367V144L376.367 160H320.367L336.367 144V120H272.367L264.367 104L328.367 7.99999L360.367 -2.38419e-06ZM336.367 16L288.367 104L336.367 112V16Z" fill="#fff"/>
</svg>
