<svg width="341" height="146" viewBox="0 0 341 146" fill="none" xmlns="http://www.w3.org/2000/svg">
<path d="M2.38419e-07 104.6V86L55.2 2.99999H87.2V86H102.4V104.6H87.2V143H68V104.6H2.38419e-07ZM19.8 86H68V18.2H65.6L19.8 86ZM170.053 146C153.52 146 140.586 139.533 131.253 126.6C122.053 113.667 117.453 95.1333 117.453 71C117.453 56.0667 119.586 43.2667 123.853 32.6C128.253 21.9333 134.386 13.8667 142.253 8.39999C150.253 2.79999 159.52 -6.67572e-06 170.053 -6.67572e-06C180.72 -6.67572e-06 189.986 2.79999 197.853 8.39999C205.853 13.8667 211.986 21.9333 216.253 32.6C220.653 43.1333 222.853 55.9333 222.853 71C222.853 95.2667 218.186 113.867 208.853 126.8C199.653 139.6 186.72 146 170.053 146ZM202.253 127.4V18.6H137.653V127.4H202.253ZM237.891 104.6V86L293.091 2.99999H325.091V86H340.291V104.6H325.091V143H305.891V104.6H237.891ZM257.691 86H305.891V18.2H303.491L257.691 86Z" fill="#fff"/>
</svg>
