<svg width="328" height="130" viewBox="0 0 328 130" fill="none" xmlns="http://www.w3.org/2000/svg">
<path d="M73.1 129.4V93.2H0.5V55.2H18.7V37H36.7V19H55.1V0.799992H93.5V129.4H73.1ZM20.7 73H73.1V21H57.1V39H38.7V57H20.7V73ZM135.888 129.4V111.4H117.688V19H135.888V0.799992H192.288V19H210.688V111.4H192.288V129.4H135.888ZM137.888 109.4H190.288V21H137.888V109.4ZM307.475 129.4V93.2H234.875V55.2H253.075V37H271.075V19H289.475V0.799992H327.875V129.4H307.475ZM255.075 73H307.475V21H291.475V39H273.075V57H255.075V73Z" fill="#fff"/>
</svg>
